<?xml version="1.0" standalone="no"?>
<!DOCTYPE svg PUBLIC "-//W3C//DTD SVG 20010904//EN"
 "http://www.w3.org/TR/2001/REC-SVG-20010904/DTD/svg10.dtd">
<svg version="1.0" xmlns="http://www.w3.org/2000/svg"
 width="700.000000pt" height="700.000000pt" viewBox="0 0 700.000000 700.000000"
 preserveAspectRatio="xMidYMid meet">
<metadata>
Created by potrace 1.11, written by Peter Selinger 2001-2013
</metadata>
<g transform="translate(0.000000,700.000000) scale(0.100000,-0.100000)"
fill="#000000" stroke="none">
<path d="M135 6166 c-51 -19 -110 -82 -124 -132 -15 -54 -15 -4193 0 -4247 11
-43 59 -102 98 -121 14 -7 185 -57 379 -111 l352 -98 0 -649 c0 -710 -3 -675
59 -741 38 -42 79 -60 136 -60 36 0 385 96 1240 342 655 188 1204 342 1220
342 17 0 565 -154 1220 -342 865 -248 1205 -342 1245 -343 70 -1 125 26 165
83 l30 43 5 661 5 662 340 95 c187 52 355 101 372 109 43 18 82 57 104 106 18
38 19 125 19 2146 0 2282 3 2140 -53 2201 -36 39 -100 68 -149 68 -30 0 -132
-33 -335 -107 l-293 -108 0 -1653 c0 -1227 -3 -1665 -12 -1700 -8 -31 -24 -59
-52 -86 -41 -40 -57 -46 -1311 -464 -699 -232 -1281 -422 -1295 -422 -44 0
-2552 840 -2588 867 -18 13 -42 43 -55 66 l-22 42 -5 1674 -5 1674 -280 104
c-154 57 -300 106 -325 109 -26 2 -62 -2 -85 -10z"/>
</g>
</svg>
